<svg xmlns="http://www.w3.org/2000/svg" width="203" height="159" fill="none"><g clip-path="url(#a)"><path fill="#AD5F1F" d="M171.701 27.157c.746-1.356 6.639-4.949 9.159-5.323-.594 5.493-4.422 9.573-4.422 9.573-3.417-1.778-4.737-4.25-4.737-4.25ZM187.036 72.889c1.539.193 7.038 4.351 8.305 6.557-5.337 1.463-10.535-.599-10.535-.599.415-3.829 2.23-5.958 2.23-5.958ZM161.78 103.376c1.135 1.039 3.195 7.622 2.945 10.157-5.194-1.901-8.231-6.593-8.231-6.593 2.569-2.885 5.286-3.564 5.286-3.564ZM134.049 18.027c1.173-3.422 6.176-8.715 6.176-8.715a24.585 24.585 0 0 1-.333 11.324c-5.851-.87-5.843-2.61-5.843-2.61Z"/><path fill="#F2AE72" d="M137.145 102.188a17.327 17.327 0 0 0 9.572 6.178c3.797.923 7.797.539 11.351-1.091a17.36 17.36 0 0 0 8.228-7.89 17.305 17.305 0 0 0 1.552-11.279 17.544 17.544 0 0 0 12.279-2.887 17.504 17.504 0 0 0 7.16-10.373 17.449 17.449 0 0 0-1.675-12.48 17.478 17.478 0 0 0-9.639-8.11 18.696 18.696 0 0 0 4.465-12.866 18.667 18.667 0 0 0-5.453-12.471 18.724 18.724 0 0 0-12.481-5.468 18.764 18.764 0 0 0-12.896 4.434 16.32 16.32 0 0 0-6.908-8.197 16.389 16.389 0 0 0-20.109 2.668 16.343 16.343 0 0 0-4.541 9.716c-2.621 5.937-5.005 5.624-21.108 7.67-27.097 3.446-89.43 12.424-126.456 21.004l21.601 80.617c70.92-22.022 132.09-49.123 136.956-49.779 3.626-.48 3.025 4.884 8.102 10.604Z"/><path fill="#F4E9E3" d="M137.145 102.188a17.327 17.327 0 0 0 9.572 6.178c3.797.923 7.797.539 11.351-1.091a17.36 17.36 0 0 0 8.228-7.89 17.305 17.305 0 0 0 1.552-11.279 17.543 17.543 0 0 0 12.279-2.887 17.504 17.504 0 0 0 7.16-10.373 17.449 17.449 0 0 0-1.675-12.48 17.478 17.478 0 0 0-9.639-8.11 18.696 18.696 0 0 0 4.465-12.866 18.667 18.667 0 0 0-5.453-12.471 18.724 18.724 0 0 0-12.481-5.468 18.764 18.764 0 0 0-12.896 4.434 16.32 16.32 0 0 0-6.908-8.197 16.39 16.39 0 0 0-20.109 2.668 16.342 16.342 0 0 0-4.541 9.716c-2.621 5.937-5.005 5.624-21.108 7.67-7.45.947-17.569 2.315-29.101 3.977-4.68 25.828 7.934 52.367 15.57 65.485 25.835-9.992 43.137-17.284 45.632-17.62 3.627-.48 3.025 4.884 8.102 10.604Z"/><path fill="#F29E57" d="M151.167 57.547c2.617 9.765-10.31 22.218-14.989 19.31-6.954-4.32-1.769-8.112-3.245-13.62-1.476-5.508-7.895-8.022-5.237-14.025 2.774-6.244 20.989-.928 23.471 8.335ZM136.269 35.51a3.386 3.386 0 0 1-3.557-1.203 3.366 3.366 0 0 1-.244-3.744 3.379 3.379 0 0 1 3.371-1.66 3.377 3.377 0 0 1 2.823 2.472 3.382 3.382 0 0 1-2.393 4.136ZM160.863 47.22a3.378 3.378 0 0 1-4.249-3.038 3.375 3.375 0 0 1 1.881-3.25 3.387 3.387 0 0 1 3.725.488 3.37 3.37 0 0 1 .697 4.226 3.387 3.387 0 0 1-2.054 1.574ZM167.505 74.461a3.388 3.388 0 0 1-3.558-1.204 3.374 3.374 0 0 1 1.19-5.084 3.386 3.386 0 0 1 3.725.488 3.37 3.37 0 0 1 .697 4.226 3.386 3.386 0 0 1-2.054 1.574ZM149.749 94.784a3.386 3.386 0 0 1-3.558-1.204 3.374 3.374 0 0 1 1.19-5.084 3.388 3.388 0 0 1 3.725.488 3.37 3.37 0 0 1 .697 4.226 3.387 3.387 0 0 1-2.054 1.574Z"/><path fill="#F2AE72" d="M113.163 67.077a27.77 27.77 0 0 1-.96-8.73 1.17 1.17 0 0 1 2.04-.705c.205.232.31.535.292.844-.305 5.044 1.322 11.106 4.138 15.446a1.162 1.162 0 0 1-.346 1.614 1.169 1.169 0 0 1-1.616-.344 28.67 28.67 0 0 1-3.548-8.125Z" style="mix-blend-mode:multiply"/></g><defs><clipPath id="a"><path fill="#fff" d="m-31 55.2 27.694 103.354 206.01-55.2L175.01 0z"/></clipPath></defs></svg>