<svg xmlns="http://www.w3.org/2000/svg" width="449" height="304" fill="none"><path fill="#FFF6D9" fill-rule="evenodd" d="M122.124 613.954c-65.355 9.502-120.54-47.721-170.666-90.725-46.467-39.867-81.177-88.906-104.631-145.464-25.294-60.995-60.918-129.606-34.537-190.138 26.197-60.109 106.002-68.744 162.133-102.631C24.188 54.952 64.439-6.597 122.124.576c57.875 7.198 77.996 81.289 123.225 118.111 41.392 33.699 98.211 44.203 129.374 87.538 39.473 54.893 93.598 123.738 67.367 186.055-26.68 63.381-125.387 46.9-181.911 86.061-54.354 37.656-72.621 126.099-138.055 135.613Z" clip-rule="evenodd"/></svg>