<svg xmlns="http://www.w3.org/2000/svg" width="111" height="158" fill="none"><path fill="#D4C962" d="M62.602 105.926c24.054 16.131 60.686 33.749 63.988 27.636 3.302-6.113-12.22-23.461-33.464-44.221-22.376-21.883-38.1-28.081-45.91-25.721-12.643 3.863-8.656 26.217 15.386 42.306Z"/><path fill="#D4C962" d="M95.752 61.769c20.692 29.166 39.639 78.004 31.792 81.443-7.584 3.31-20.826-18.703-48.992-46.64-27.49-27.18-59.384-63.163-55.986-72.629 6.517-17.98 44.426-2.68 73.186 37.826Z"/><path fill="#F6DF8A" d="m128.031 141.211-.312-1.164-.271-1.012c-.182-.679-.51-1.349-.766-1.919-3.883-8.955-12.094-16.067-20.411-20.805-13.144-7.588-27.698-12.347-42.331-16.135-7.221-1.867-14.522-3.535-21.787-5.123-6.058-1.348-12.708-4.021-18.907-3.237-6.199.785-4.267 7.218-1.19 10.122 27.937 26.304 71.527 14.357 97.975 41.416.76.792 3.586 1.371 4.618 1.733 2.589.97 3.993-1.708 3.382-3.876Z"/></svg>