<svg xmlns="http://www.w3.org/2000/svg" width="446" height="446" fill="none"><path fill="#FFEEAD" fill-rule="evenodd" d="M232.485 4.612c51.853-12.62 110.968 1.164 152.161 35.2 40.322 33.318 55.457 88.613 60.792 140.76 4.601 44.98-20.169 84.786-33.294 128.04-13.462 44.368-5.635 103.034-44.456 128.19-38.958 25.244-88.902-9.2-135.203-11.774-42.569-2.366-85.986 15.153-124.743-2.676-43.322-19.93-81.635-54.761-97.869-99.732-16.481-45.655-11.938-98.796 10.711-141.705 20.95-39.69 70.872-49.463 105.324-78.128 38.055-31.661 58.54-86.483 106.577-98.175Z" clip-rule="evenodd"/><g clip-path="url(#a)"><path fill="#DDE0B6" d="M414.041 351.184c21.364 4.672 29.745 10.683 29.512 17.345-.272 7.983-22.19 15.141-51.634 14.995l-80.932-.505c-83.515-.563-220.17 2.02-261.84.505-41.155-1.505-51.866-9.993-48.555-20.268 3.72-11.654 31.309-14.568 75.144-16.18 63.754-2.272 234.6-3.069 267.55-2.136 24.142.689 50.74 1.903 70.755 6.244Z"/><path fill="#AF7C84" d="M106.511 122.455h-6.74v235.673h6.74V122.455Z"/><path fill="#AF7C84" d="m106.443 123.135-3.117 15.169-3.545 17.287L58.15 358.128h-6.885l48.574-236.353 3.312.68 3.292.68Z"/><path fill="#AF7C84" d="M160.767 358.128h-6.915l-47.331-205.965-3.195-13.859-3.467-15.092 3.282-.757h.01l3.282-.758 54.334 236.431Z"/><path fill="#CFD6F6" d="M125.137 70.041H81.155l-12.168 68.322h68.318l-12.168-68.322Z"/><path fill="#5361A3" d="M129.507 134.468a.482.482 0 0 1-.486-.408l-9.594-60.358a.488.488 0 0 1 .407-.563.494.494 0 0 1 .564.408l9.565 60.368a.481.481 0 0 1-.408.553h-.048ZM120.388 134.468a.483.483 0 0 1-.486-.427l-6.331-60.368a.487.487 0 1 1 .971-.097l6.322 60.358a.49.49 0 0 1-.427.534h-.049ZM111.774 134.468a.473.473 0 0 1-.476-.456l-3.126-60.358a.48.48 0 0 1 .277-.464.486.486 0 0 1 .694.415l3.117 60.358a.474.474 0 0 1-.457.505h-.029ZM103.063 134.468a.486.486 0 0 1-.485-.485V73.625a.486.486 0 0 1 .485-.486.497.497 0 0 1 .486.486v60.367a.487.487 0 0 1-.486.476ZM94.43 134.468a.472.472 0 0 1-.337-.156.492.492 0 0 1-.129-.349l3.224-60.358a.496.496 0 0 1 .505-.466.486.486 0 0 1 .457.515l-3.215 60.358a.481.481 0 0 1-.156.334.47.47 0 0 1-.349.122ZM85.71 134.468h-.049a.488.488 0 0 1-.437-.534l6.42-60.358a.465.465 0 0 1 .533-.427.476.476 0 0 1 .428.534l-6.41 60.358a.496.496 0 0 1-.485.427ZM76.815 134.468h-.078a.493.493 0 0 1-.408-.553l9.663-60.368a.492.492 0 0 1 .97.155l-9.71 60.358a.474.474 0 0 1-.437.408Z"/><path fill="#FCD8AE" d="m312.628 161.651-62.792 1.272-.747-1.349c-5.341-4.808-3.953-14.034.971-19.298l.146-.165c10.332-11.013 29.133-18.326 40.504-18.073 22.035.485 21.957 16.403 21.957 29.135l-.039 8.478Z"/><path fill="#D48648" d="M262.267 121.794a9.513 9.513 0 0 1 1.476-.31 10.72 10.72 0 0 1 1.466-.107c.978-.011 1.954.08 2.913.272a14.48 14.48 0 0 1 5.526 2.331 13.091 13.091 0 0 1 4.108 4.603 10.924 10.924 0 0 1 1.272 5.827 1.113 1.113 0 0 1-.833 1.004 1.12 1.12 0 0 1-1.216-.47 28.933 28.933 0 0 0-2.914-3.885 17.862 17.862 0 0 0-3.33-2.835 31.269 31.269 0 0 0-3.992-2.224 28.18 28.18 0 0 0-2.214-.972l-1.155-.514-.583-.262c-.194-.098-.408-.175-.573-.272l-.204-.127a1.106 1.106 0 0 1 .253-2.01v-.049ZM274.541 120.163a9.783 9.783 0 0 1 1.486-.301c.483-.07.969-.105 1.457-.107.978-.016 1.955.075 2.913.272a14.322 14.322 0 0 1 5.526 2.331 12.967 12.967 0 0 1 4.107 4.593 10.975 10.975 0 0 1 1.273 5.827 1.118 1.118 0 0 1-2.04.535v-.059a27.974 27.974 0 0 0-2.913-3.884 17.927 17.927 0 0 0-3.331-2.846 33.974 33.974 0 0 0-3.991-2.224c-.719-.34-1.457-.67-2.214-.971l-1.185-.486-.583-.262c-.194-.097-.408-.184-.573-.282l-.204-.126a1.105 1.105 0 0 1-.506-.678 1.099 1.099 0 0 1 .128-.837c.148-.24.379-.416.65-.495ZM286.806 117.483a9.578 9.578 0 0 1 1.515 0c.484.048.964.126 1.438.233.955.231 1.886.556 2.777.971a14.568 14.568 0 0 1 4.855 3.564 13.035 13.035 0 0 1 2.914 5.438c.51 1.965.463 4.034-.136 5.973a1.097 1.097 0 0 1-.553.655 1.11 1.11 0 0 1-.855.064 1.093 1.093 0 0 1-.699-.67v-.068a28.236 28.236 0 0 0-1.894-4.409 18.157 18.157 0 0 0-2.574-3.545 31.381 31.381 0 0 0-3.398-3.069c-.612-.505-1.253-.971-1.943-1.505l-.971-.777-.505-.389c-.165-.136-.349-.272-.485-.398l-.175-.175a1.103 1.103 0 0 1-.312-1.219 1.107 1.107 0 0 1 1.031-.723l-.03.049Z"/><path fill="#FFDDA3" d="M261.062 147.171c-1.116 1.942-3.136 3.428-4.505 3.448-1.37.019-3.39-1.486-4.506-3.448-1.117-1.962.893-3.885 4.506-3.885 3.612 0 5.661 1.933 4.505 3.885Z"/><path fill="#331338" d="M256.323 144.219c.928 0 1.68-.413 1.68-.923 0-.509-.752-.922-1.68-.922-.928 0-1.68.413-1.68.922 0 .51.752.923 1.68.923Z"/><path fill="#331338" d="M258.489 146.171h-.117a3.52 3.52 0 0 1-2.039-1.418 3.427 3.427 0 0 1-2.088 1.33.391.391 0 0 1-.304-.041.406.406 0 0 1-.186-.245.395.395 0 0 1 .145-.422.412.412 0 0 1 .141-.069c1.807-.485 1.884-1.631 1.884-1.787v-.048a.41.41 0 0 1 .398-.389.4.4 0 0 1 .399.379c0 .165.126 1.35 1.874 1.884a.408.408 0 0 1-.117.797l.01.029ZM251.235 140.237a1.574 1.574 0 0 1-3.108-.076 1.572 1.572 0 0 1 1.554-1.779 1.721 1.721 0 0 1 1.554 1.855ZM264.384 140.237a1.574 1.574 0 0 1-3.108-.076 1.572 1.572 0 0 1 1.554-1.779 1.721 1.721 0 0 1 1.554 1.855Z"/><path fill="#FCD8AE" d="M272.288 143.869c0 6.196-5.7 11.8-13.42 12.878-8.284 1.156-15.839-3.098-17.034-9.79-1.301-7.264 5.351-13.421 13.596-14.567a18.49 18.49 0 0 1 3.574-.155 17.92 17.92 0 0 1 3.282.495c1.524.37 2.981.973 4.321 1.787a11.201 11.201 0 0 1 5.545 7.963c.079.459.124.924.136 1.389Z"/><path fill="#FCD8AE" d="m267.093 135.585-6.089.447-2.758.204s.282-1.943.796-4.011c.622-2.516 1.583-5.244 2.797-4.943.913.233 1.942 1.67 2.913 3.292a40.676 40.676 0 0 1 1.943 3.885c.194.67.398 1.126.398 1.126Z"/><path fill="#D48648" d="M272.288 143.869a9.498 9.498 0 0 1-2.651.359c-4.797 0-8.672-3.35-8.672-7.487a5.99 5.99 0 0 1 0-.709 6.802 6.802 0 0 1 1.321-3.312 8.197 8.197 0 0 1 2.389-2.146 40.667 40.667 0 0 1 1.942 3.885 11.2 11.2 0 0 1 5.545 7.963c.078.479.12.962.126 1.447Z"/><path fill="#FCD8AE" d="M252.08 137.615s-4.555-6.973-6.798-7.07c-2.243-.097-1.709 9.498-1.709 9.498l8.507-2.428Z"/><path fill="#AD5F1F" d="M271.91 141.626a.486.486 0 0 1-.476-.408 9 9 0 0 0-5.166-6.798.49.49 0 0 1-.273-.257.48.48 0 0 1-.009-.375.478.478 0 0 1 .621-.281 9.857 9.857 0 0 1 5.827 7.575.486.486 0 0 1-.398.563l-.126-.019Z"/><path fill="#AD5F1F" d="M266.889 135.585a.423.423 0 0 1-.417-.272v-.087c-1.224-3.186-3.215-7.07-4.807-7.546a.496.496 0 0 1-.331-.602.485.485 0 0 1 .602-.331c2.37.7 4.594 5.925 5.439 8.139a.527.527 0 0 1-.253.66.545.545 0 0 1-.233.039ZM250.798 136.304a.444.444 0 0 1-.35-.175s0-.058-.077-.126c-1.884-3.021-3.817-4.856-5.147-4.973a.479.479 0 0 1-.434-.333.497.497 0 0 1-.023-.191.515.515 0 0 1 .525-.447c2.282.165 4.68 3.467 5.904 5.429a.524.524 0 0 1-.087.709.548.548 0 0 1-.311.107Z"/><path fill="#D48648" d="M298.168 140.227a15.153 15.153 0 0 0-3.748 7.226 21.66 21.66 0 0 0-.457 3.166s-5.671 1.291-8.604 4.069a8.954 8.954 0 0 1-.776-3.652c0-5.972 5.923-10.818 13.236-10.818l.349.009Z"/><path fill="#AD5F1F" d="M293.886 155.999a.483.483 0 0 1-.476-.427 20.726 20.726 0 0 1 .553-8.275c1.078-3.146 2.137-5.613 3.885-7.41 4.36-4.554 10.682-5.04 12.508-5.079a.524.524 0 0 1 .534.466.46.46 0 0 1-.418.505h-.107c-1.738 0-7.72.496-11.818 4.788-1.602 1.661-2.612 4.021-3.642 7.041a19.646 19.646 0 0 0-.514 7.837.495.495 0 0 1-.418.544l-.087.01Z"/><path fill="#AD5F1F" d="M284.68 162.613a.498.498 0 0 1-.476-.379c0-.097-.476-2.321 2.068-4.623 1.642-1.68 3.972-2.01 5.827-2.282 1.699-.243 2.758-.437 2.913-1.185a.496.496 0 1 1 .971.204c-.31 1.457-1.942 1.69-3.729 1.942-1.786.253-3.884.554-5.302 2.02-2.117 1.943-1.796 3.642-1.787 3.72a.485.485 0 0 1-.369.573l-.116.01Z"/><path fill="#331338" d="M250.846 143.073a1.767 1.767 0 1 1-1.757-1.583 1.681 1.681 0 0 1 1.757 1.583ZM263.335 142.383a1.779 1.779 0 0 1-2.956 1.515 1.778 1.778 0 0 1 1.198-3.098 1.679 1.679 0 0 1 1.758 1.583Z"/><path fill="#FF9A75" d="M117.048 299.615c1.039.35-15.179 13.597-25.59 33.797a3.61 3.61 0 0 1-3.64 1.942c-4.856-.563-16.063-1.816-28.775-2.777-7.108-.534-23.918-2.156-23.918-2.156s-5.41-4.225 9.711-6.06c24.618-3.011 30.852-9.935 30.852-9.935 10.177-12.499 19.422-29.135 19.422-29.135s21.122 14.052 21.938 14.324Z"/><path fill="#EF7959" d="M147.22 291.836c-5.963 16.889-6.72 22.017-8.74 36.72a2.915 2.915 0 0 1-2.02 2.389 229.931 229.931 0 0 0-22.501 8.741c-3.884 1.699-13.896 5.176-20.12 7.283a2.21 2.21 0 0 1-2.503-.815 2.216 2.216 0 0 1 .045-2.632 34.936 34.936 0 0 1 6.303-6.196c19.422-15.199 19.422-19.725 19.422-19.725 1.942-8.051 6.487-28.465 7.769-33.019-.02-.01 22.568 6.545 22.345 7.254Z"/><path fill="#331338" d="m209.507 206.84-14.82-12.742a12.07 12.07 0 0 0-16.091 1.602l-74.775 83.822c-.231.149-.432.34-.592.563a1.637 1.637 0 0 0-.195.33l-.291.311.126.097c-1.155 3.885 6.05 12.878 16.956 20.861 10.478 7.662 20.801 11.79 24.588 10.071l.097.068.107-.175c.319-.167.598-.403.816-.69.283-.402.445-.877.466-1.369l63.608-102.749Z"/><path fill="#A19623" d="M170.75 195.205a11.78 11.78 0 0 0-15.839 1.612s-76.193 85.346-76.339 85.55c-2.486 3.399 4.943 13.063 16.597 21.589 11.653 8.527 23.122 12.684 25.608 9.275.155-.204 13.916-11.032 15.537-25.959l1.943-7.303c2.398-6.264 6.875-6.527 11.303-11.577l11.479-13.12c3.651-5.245 8.545-11.722 8.545-21.094 0-9.789 10.683-12.45 14.305-21.579l2.301-5.876-15.44-11.518Z"/><path fill="#331338" d="M155.911 372.026h-6.118l-3.185-23.619 13.489-.233-4.186 23.852ZM260.072 372.026h6.118l3.175-23.619-13.479-.233 4.186 23.852ZM217.868 372.026h-6.118l-3.176-23.619 13.479-.233-4.185 23.852ZM325.962 372.026h5.632l4.059-23.61-13.877-.242 4.186 23.852Z"/><path fill="#F2AE72" d="m344.869 162.185-8.74 56.163a39.498 39.498 0 0 1-38.941 32.651h-14.713a14.773 14.773 0 0 0-14.741 13.596l-2.525 32.282-104.549-.088-11.653-46.121 34.853.127a39.483 39.483 0 0 0 39.087-32.661l5.972-32.786a28.29 28.29 0 0 1 27.88-23.396l85.565.078c.837.007 1.673.058 2.505.155Z"/><path fill="#331338" d="M175.256 249.454s12.07 13.529 18.528 54.6l37.359 5.224 9.886-17.578-57.655-44.499-8.118 2.253Z"/><path fill="#702831" d="M293.721 140.82c-.554 0-5.875.971-6.458 4.399-.583 3.428 3.418 7.866 12.518 8.537 9.099.67.67-12.392.67-12.392l-6.73-.544Z"/><path fill="#331338" d="M291.72 276.628s-11.4 1.495-31.891 16.791c-10.342 7.721-21.442 3.011-30.454-7.449l-51.216-59.493 25.511-24.717 88.05 74.868Z"/><path fill="#A19623" d="m275.629 273.637-10.381 11.887a34.97 34.97 0 0 1-25.289 11.916 34.96 34.96 0 0 1-25.937-10.43l-54.926-56.037 23.433-26.891 93.1 69.555Z"/><path fill="#331338" d="m245.923 222.301-.398 1.204-18.607-17.044-11.42-39.964-54.003.272c-1.262 0-2.709 1.243-2.36 3.671l8.488 37.973a4.59 4.59 0 0 0 1.097 2.107l17.81 19.424a5.218 5.218 0 0 0 3.817 1.136l53.77-5.565c.922-.078 1.787-.67 1.806-1.466v-1.748Z"/><path fill="#5361A3" d="m227.074 204.693-57.509 3.555-9.255-39.129a1.8 1.8 0 0 1 .266-1.67 1.808 1.808 0 0 1 1.531-.719l53.411-.184a3.48 3.48 0 0 1 3.156 2.564l8.4 35.583Z"/><path fill="#E5EBFF" d="m223.112 203.207-3.224.195-31.357 1.855-15.121.903a2.765 2.765 0 0 1-2.476-1.535l-.068-.126a2.257 2.257 0 0 1-.116-.369v-.058l-2.127-9.003-1.127-4.768v-.117l-4.671-19.724a1.544 1.544 0 0 1 .25-1.411 1.528 1.528 0 0 1 1.304-.59h17.286l33.085-.078a2.8 2.8 0 0 1 2.554 2.03l7.284 30.757v.087a1.543 1.543 0 0 1-.253 1.344 1.54 1.54 0 0 1-1.223.608Z"/><path fill="#5361A3" d="m244.855 223.689-54.062 5.109a5.17 5.17 0 0 1-4.195-1.496l-17.014-19.054 57.49-3.555 18.5 17.239a1.02 1.02 0 0 1-.719 1.757Z"/><path fill="#8D9FED" d="m183.675 220.669-11.187-11.8 53.702-3.243 11.149 10.139-53.664 4.904Z"/><path fill="#331338" d="M193.26 225.981a.51.51 0 0 1-.359-.155l-18.675-20.123a.468.468 0 0 1-.143-.34.468.468 0 0 1 .143-.339.486.486 0 0 1 .69 0l18.684 20.122a.486.486 0 0 1 0 .68.495.495 0 0 1-.34.155ZM198.562 224.797a.452.452 0 0 1-.349-.156l-18.723-20.113a.478.478 0 0 1-.114-.548.5.5 0 0 1 .284-.264.496.496 0 0 1 .386.027.487.487 0 0 1 .153.125l18.713 20.113a.483.483 0 0 1 .106.531.483.483 0 0 1-.106.158.478.478 0 0 1-.35.127ZM203.864 223.854a.44.44 0 0 1-.349-.155l-18.684-20.113a.495.495 0 0 1-.114-.548.5.5 0 0 1 .284-.264.496.496 0 0 1 .386.027.487.487 0 0 1 .153.125l18.684 20.113a.499.499 0 0 1 .143.344.476.476 0 0 1-.309.447.472.472 0 0 1-.194.024ZM209.157 223.816a.452.452 0 0 1-.35-.156l-18.635-20.113a.476.476 0 0 1-.106-.531.468.468 0 0 1 .106-.158.48.48 0 0 1 .689 0l18.685 20.113a.499.499 0 0 1 .143.344.495.495 0 0 1-.143.345.47.47 0 0 1-.389.156ZM214.45 222.641a.505.505 0 0 1-.35-.156l-18.684-20.122a.464.464 0 0 1 0-.68.486.486 0 0 1 .34-.143.484.484 0 0 1 .34.143l18.684 20.122a.475.475 0 0 1 .109.525.473.473 0 0 1-.109.155.48.48 0 0 1-.149.112.496.496 0 0 1-.181.044ZM219.761 221.698a.5.5 0 0 1-.349-.155l-18.684-20.123a.484.484 0 0 1 .709-.66l18.684 20.123a.48.48 0 0 1 .109.154.476.476 0 0 1 0 .371.495.495 0 0 1-.274.261.446.446 0 0 1-.195.029ZM225.064 221.495a.507.507 0 0 1-.36-.156l-18.684-20.122a.482.482 0 0 1-.105-.525.486.486 0 0 1 .795-.155l18.674 20.122a.484.484 0 0 1 .106.525.486.486 0 0 1-.106.155.498.498 0 0 1-.32.156ZM230.366 220.31a.483.483 0 0 1-.359-.156l-18.675-20.113a.497.497 0 0 1-.154-.355.495.495 0 0 1 .155-.354.475.475 0 0 1 .365-.129.47.47 0 0 1 .343.178l18.675 20.113a.48.48 0 0 1 .104.528.474.474 0 0 1-.454.288ZM235.668 219.368a.475.475 0 0 1-.359-.156l-18.675-20.113a.488.488 0 0 1 0-.689.495.495 0 0 1 .69 0l18.674 20.113a.47.47 0 0 1-.078.742.48.48 0 0 1-.271.074l.019.029Z"/><path fill="#331338" d="M168.312 213.9a.484.484 0 1 1 0-.971l73.27-5.458a.484.484 0 0 1 .52.451.49.49 0 0 1-.452.52l-73.26 5.458h-.078ZM169.215 218.367a.486.486 0 0 1 0-.971l73.212-5.934a.495.495 0 0 1 .524.447.483.483 0 0 1-.446.525l-73.212 5.924-.078.009Z"/><path fill="#3D4778" d="m223.112 203.207-3.224.195-31.357 1.855-15.12.903a2.768 2.768 0 0 1-2.477-1.535l-.068-.126a3.183 3.183 0 0 1-.116-.417l17.616-.972 36.193-1.942v.087a1.54 1.54 0 0 1-.244 1.332 1.53 1.53 0 0 1-1.203.62Z"/><path fill="#8D9FED" d="m208.254 198.439-31.678 1.602a1.606 1.606 0 0 1-1.078-.331 1.607 1.607 0 0 1-.592-.96l-5.827-24.542-.446-2.029a.968.968 0 0 1 .501-1.036.96.96 0 0 1 .392-.11l31.697-.233a1.608 1.608 0 0 1 1.573 1.233l.437 1.748 5.827 23.483a.966.966 0 0 1-.147.764.97.97 0 0 1-.659.411Z"/><path fill="#5361A3" d="M176.46 200.391a1.939 1.939 0 0 1-1.942-1.564l-6.254-26.571a1.3 1.3 0 0 1 .695-1.442c.168-.082.351-.127.538-.131l31.697-.233a1.944 1.944 0 0 1 1.942 1.505l6.293 25.251a1.3 1.3 0 0 1-.639 1.452 1.27 1.27 0 0 1-.546.15l-31.668 1.583h-.116Zm24.763-29.242-31.697.233a.556.556 0 0 0-.427.224.593.593 0 0 0-.126.505l.446 2.02 5.827 24.541a1.262 1.262 0 0 0 1.311.971l31.697-1.602a.572.572 0 0 0 .417-.233.584.584 0 0 0 .098-.505l-6.283-25.251a1.286 1.286 0 0 0-1.263-.903Z"/><path fill="#5361A3" d="m203.233 173.791-34.154.417-.446-2.029a.968.968 0 0 1 .501-1.036.96.96 0 0 1 .392-.11l31.697-.233a1.608 1.608 0 0 1 1.573 1.233l.437 1.758ZM175.236 191.184a.358.358 0 0 1-.329-.476.341.341 0 0 1 .319-.223l30.415-1.185a.31.31 0 0 1 .26.078.304.304 0 0 1 .079.115.325.325 0 0 1 .021.138.346.346 0 0 1-.016.135.341.341 0 0 1-.181.196.32.32 0 0 1-.133.028l-30.425 1.194h-.01ZM174.44 188.29a.342.342 0 0 1-.35-.33.36.36 0 0 1 .33-.369l30.425-.991a.328.328 0 0 1 .139.018.336.336 0 0 1 .23.322.36.36 0 0 1-.34.36l-30.424 1.019-.01-.029ZM173.663 185.406a.347.347 0 0 1-.349-.34.337.337 0 0 1 .339-.359l30.425-.865c.224 0 .36.146.36.34a.347.347 0 0 1-.207.329.36.36 0 0 1-.133.031l-30.425.864h-.01ZM172.886 182.502a.336.336 0 0 1-.247-.096.336.336 0 0 1-.102-.244.34.34 0 0 1 .095-.25.34.34 0 0 1 .244-.109l30.435-.699a.356.356 0 0 1 .349.349.35.35 0 0 1-.349.35l-30.425.699ZM172.129 179.608a.354.354 0 0 1-.248-.102.35.35 0 0 1 .238-.597l30.444-.534a.35.35 0 1 1 0 .699l-30.434.534ZM171.391 176.704a.354.354 0 0 1-.248-.102.353.353 0 0 1 0-.495.354.354 0 0 1 .248-.102l30.434-.379a.345.345 0 0 1 .247.103.345.345 0 0 1 .103.247.331.331 0 0 1-.34.35l-30.444.378ZM220.791 200.1l-19.16.971c-1.068.058-1.671-.816-2.04-1.874l-.767-2.691c-.349-1.476.428-2.117 1.836-2.078l17.023-.592a1.932 1.932 0 0 1 1.403.51 1.943 1.943 0 0 1 .627 1.354l1.078 4.4Z"/><path fill="#fff" d="M170.701 173.092a.54.54 0 0 0 .534-.544.539.539 0 0 0-.534-.544.539.539 0 0 0-.534.544c0 .3.239.544.534.544ZM172.983 172.557a.512.512 0 0 1-.038.208.534.534 0 0 1-.496.336.544.544 0 0 1-.379-.928.552.552 0 0 1 .379-.169.533.533 0 0 1 .382.166.528.528 0 0 1 .152.387ZM174.76 172.557a.543.543 0 1 1-1.078 0 .539.539 0 0 1 .13-.43.545.545 0 0 1 .948.43Z"/><g fill="#fff" opacity=".44"><path d="M200.601 196.361a.239.239 0 0 1-.088-.014.223.223 0 0 1-.145-.21.242.242 0 0 1 .224-.242l17.373-.622a.23.23 0 0 1 .161.065.23.23 0 0 1 .072.158.222.222 0 0 1-.223.243l-17.364.622h-.01ZM200.999 198.021a.232.232 0 0 1-.165-.397.233.233 0 0 1 .165-.069l17.402-.612a.261.261 0 0 1 .243.224.245.245 0 0 1-.224.243l-17.412.611h-.009ZM201.514 199.721a.23.23 0 0 1-.161-.065.23.23 0 0 1-.072-.158c0-.062.023-.121.064-.166a.246.246 0 0 1 .16-.077l17.412-.787a.217.217 0 0 1 .17.058.236.236 0 0 1 .054.075.234.234 0 0 1 .018.091.208.208 0 0 1-.014.089.231.231 0 0 1-.209.153l-17.412.787h-.01Z" opacity=".44"/></g><path fill="#fff" d="m217.052 170.421 7.303 30.844a1.539 1.539 0 0 1-.751 1.826 1.535 1.535 0 0 1-.687.175l-3.233.184c-6.06-1.845-11.741-7.371-16.509-15.84-4.526-8.07-13.596-14.567-21.772-19.141l33.085-.078a2.766 2.766 0 0 1 2.564 2.03ZM188.482 205.16l-15.11.864a2.778 2.778 0 0 1-2.438-1.428l-.068-.126a3.139 3.139 0 0 1-.116-.388v-.049l-2.146-9.051-1.127-4.769a6.803 6.803 0 0 1 1.33-.893c4.759-2.438 12.188.612 16.587 6.798a16.518 16.518 0 0 1 2.981 7.002 11.5 11.5 0 0 1 .107 2.04Z" opacity=".22"/><path fill="#331338" d="M164.457 251.193a.48.48 0 0 1-.468-.385.485.485 0 0 1 .07-.363 35.139 35.139 0 0 0 4.749-27.309.507.507 0 0 1 .729-.584.51.51 0 0 1 .242.302 36.196 36.196 0 0 1-4.914 28.164.496.496 0 0 1-.408.175Z"/><path fill="#FF9A75" d="m229.987 228.701-3.583 5.137a6.043 6.043 0 0 1-6.167 2.127c-2.67-.699-8.546-8.236-8.546-8.236l4.458-7.011 13.838 7.983Z"/><path fill="#FF9A75" d="M204.981 225.447c4.584-2.117 8.915-1.418 13.091 1.234.728.466 1.427.971 2.107 1.456.34.263.68.515.971.787.291.272.651.515 1.02.845a2.703 2.703 0 0 1 .914 1.863 2.704 2.704 0 0 1-.671 1.963c-1.418 1.603-3.205.768-4.565-.417-1.689-1.476-3.029-3.118-5.059-4.205-2.486-1.331-5.254-.894-7.769.126-1.097.437-3.981.66-4.506-.971-.155-.738 2.952-2.04 4.467-2.681Z"/><path fill="#FF9A75" d="M197.941 223.116a38.483 38.483 0 0 1 6.584-2.428 13.415 13.415 0 0 1 7.001-.446 42.052 42.052 0 0 1 7.934 3.243 151.232 151.232 0 0 1 6.215 3.215 2.699 2.699 0 0 1 1.373 1.615 2.722 2.722 0 0 1-.211 2.11 2.704 2.704 0 0 1-1.664 1.312 2.717 2.717 0 0 1-2.1-.288.94.94 0 0 1-.165-.097 161.486 161.486 0 0 0-5.73-3.535c-2.496-1.437-5.477-3.603-8.429-3.827a17.56 17.56 0 0 0-7.235 1.176c-1.252.456-4.525 1.728-5.652.174-.563-.806.68-1.563 2.079-2.224Z"/><path fill="#FF9A75" d="M202.417 217.901a19.439 19.439 0 0 1 6.954.058c1.544.348 3.039.89 4.447 1.613a60.277 60.277 0 0 1 3.273 1.68 92.605 92.605 0 0 1 6.205 3.778 2.708 2.708 0 0 1-.984 4.86 2.71 2.71 0 0 1-2.007-.344l-.175-.117a85.105 85.105 0 0 0-5.525-3.982c-2.544-1.68-5.438-3.496-8.585-3.768a27.857 27.857 0 0 0-6.477.223c-1.292.195-5.322 1.671-6.04-.709-.321-1.078 5.283-2.427 5.953-2.612a27.533 27.533 0 0 1 2.961-.68Z"/><path fill="#FF9A75" d="M198.64 214.172a52.627 52.627 0 0 1 7.108 2.02c2.318.82 4.587 1.77 6.798 2.845a93.338 93.338 0 0 1 6.458 3.458c1.049.612 2.088 1.243 3.127 1.894a72.958 72.958 0 0 1 3.098 2.029 2.713 2.713 0 0 1 .594 3.709 2.706 2.706 0 0 1-3.682.739l-.146-.107a81.53 81.53 0 0 0-2.739-2.068c-.922-.67-1.893-1.36-2.855-2.01-1.942-1.302-3.884-2.545-5.904-3.691s-4.059-2.243-6.157-3.205c-2.097-.961-5.826-2.253-5.826-2.253-1.564-.553-2.914-1.835-2.642-2.69.272-.855 1.962-.835 2.768-.67Z"/><path fill="#FF9A75" d="M222.811 234.741c.272.253 8.312 6.031 10.828 8.809l6.263-8.08a142.983 142.983 0 0 0-16.722-10.683l-.369 9.954Z"/><path fill="#F2D75E" d="m304.277 243.715-60.481-9.712 2.195-20.55c1.113.47 2.255.869 3.418 1.195 1.943.349 3.03-2.642 5.749-2.914 2.719-.272 4.38 1.117 5.448 1.36 3.02.68 5.497-.777 7.245-1.36 4.282-1.437 14.469-.874 25.501-1.049l29.764-.456c.486 0 7.478-2.243 7.565-2.574l-5.525 24.134a19.17 19.17 0 0 1-20.879 11.926Z"/><path fill="#331338" d="M247.467 222.971a33.06 33.06 0 0 1-.621 4.069c-.068.32-.146.631-.224.971-.65 2.506-1.534 4.108-2.359 4.04-.972-.097-1.603-2.515-1.642-5.885v-.835c0-.874.059-1.797.146-2.758a27.28 27.28 0 0 1 1.369-6.682c.036-.109.079-.216.127-.321.524-1.32 1.126-2.088 1.709-2.039.747.068 1.291 1.515 1.515 3.71 0 .233 0 .466.068.709a33.4 33.4 0 0 1-.088 5.021Z"/><path fill="#F2D75E" d="M330.536 195.341c-1.787-11.236-8.935-18.646-21.695-17.879-8.643.524-13.965 4.778-20.762 13.47-3.739 4.778-8.595 4.797-11.43 12.402-2.234 5.992 2.243 12.402 2.233 12.732-.116 5.739.195 6.516-2.787 16.568-1.262 4.244-8.914 16.558-8.914 16.558-4.234 18.346-15.975 31.233-1.836 41.76 6.099 4.526 23.151 8.887 29.454 1.195 9.002-13.752 22.772-36.662 29.822-59.649 3.856-11.703 7.332-28.562 5.915-37.157Z"/><path fill="#F2D75E" d="M278.164 277.094s-25.006-14.121-32.591-18.365c-3.884-2.175-6.127-1.117-9.711-2.972-4.253-2.194-4.263-3.321-5.719-6.536-1.02-2.253-4.302-2.418-5.827-3.185l7.06-17.782c2.476 1.272 3.185 2.088 4.729 2.845 2.962 1.447 4.778-.116 7.691.146 37.116 3.321 70.619 14.723 70.619 14.723l-10.886 22.483a21.365 21.365 0 0 1-25.365 8.643Z"/><path fill="#F2D75E" d="M325.156 231.789c-7.565 24.872-22.423 44.984-30.949 43.159-8.527-1.826-6.118-25.445 4.855-50.987 9.653-22.492 16.179-41.857 24.705-40.041 8.526 1.816 10.507 17.84 1.389 47.869Z"/><path fill="#FF9A75" d="M321.417 178.18c1.534 3.361 6.215 6.886-1.039 10.198-7.254 3.311-23.249 8.07-25.667 4.661-2.136-3.01 2.71-8.74 9.508-12.868 5.846-3.583 15.654-5.351 17.198-1.991Z"/><path fill="#702831" d="M299.586 163.079s3.36 4.254-2.117 6.371c-5.477 2.117-11.498 7.769-8.672 13.441 2.826 5.671 16.305 1.252 19.918-5.118 3.612-6.371 2.194-15.928 2.194-15.928l-11.323 1.234Z"/><path fill="#331338" d="M294.478 188.251c-2.457 0-4.399-1.68-5.049-4.389a7.896 7.896 0 0 1 3.797-8.867c5.457-2.816 7.186-4.992 7.205-5.011a.472.472 0 0 1 .325-.207.478.478 0 0 1 .502.244.48.48 0 0 1 .037.384.477.477 0 0 1-.097.171c-.068.097-1.845 2.35-7.526 5.283a6.919 6.919 0 0 0-3.302 7.77c.554 2.292 2.088 3.651 4.108 3.651a.483.483 0 0 1 .486.486.484.484 0 0 1-.486.485Z"/><path fill="#331338" d="M297.557 187.912a.476.476 0 0 1-.369-.175 6.511 6.511 0 0 1-1.641-4.856c.349-3.962 4.117-7.148 4.272-7.274a.497.497 0 0 1 .69.058.507.507 0 0 1-.068.69s-3.613 3.059-3.885 6.613a5.506 5.506 0 0 0 1.418 4.176.492.492 0 0 1 .063.522.496.496 0 0 1-.441.284l-.039-.038Z"/><path fill="#FF9A75" d="m319.853 187.241-17.227-4.078a25.806 25.806 0 0 0 3.438-6.624 30.807 30.807 0 0 0 1.369-5.37c.299-1.831.468-3.681.505-5.536a42.253 42.253 0 0 0-1.068-10.333l17.392-5.711c.126.884 2.7 21.958-4.409 37.652Z"/><path fill="#331338" d="M315.444 168.702c-.116.204-3.321 5.827-9.381 7.837a30.812 30.812 0 0 0 1.37-5.37 43.378 43.378 0 0 0 8.011-2.467Z"/><path fill="#FF9A75" d="m324.078 163.594-5.574 4.855a13.307 13.307 0 0 1-15.309 1.7 13.302 13.302 0 0 1-4.114-3.555 12.974 12.974 0 0 1-1.417-2.437l-3.331-10.683c-1.651-6.798 1.505-11.654 5.826-13.072l14.499-4.788 9.42 27.98Z"/><path fill="#86303A" d="M337.964 137.663c-4.603 3.671-13.799 4.477-15.916 2.457-.971-.971.845-11.896 5.438-15.538 4.594-3.642 10.682-3.72 13.596-.097 2.913 3.622 1.486 9.507-3.118 13.178Z"/><path fill="#331338" d="M326.69 137.974a.484.484 0 0 1-.476-.379.502.502 0 0 1 .379-.582c.107 0 10.429-2.253 15.227-10.45 2.913-4.943 3.233-11.062.971-18.171a.48.48 0 0 1 .025-.372.475.475 0 0 1 .285-.239.491.491 0 0 1 .373.032c.057.03.108.071.149.12.041.05.071.107.09.168 2.331 7.381 1.942 13.761-1.078 18.967-5.02 8.566-15.421 10.809-15.868 10.896l-.077.01Z"/><path fill="#331338" d="M327.991 129.593a.346.346 0 0 1-.136 0 .487.487 0 0 1-.32-.602c1.369-4.691 5.749-8.09 12.323-9.576l.282-.058a.481.481 0 0 1 .611.311.47.47 0 0 1-.029.366.487.487 0 0 1-.281.236l-.369.097c-6.303 1.427-10.323 4.496-11.654 8.896a.473.473 0 0 1-.427.33ZM289.39 235.052h-.127c-9.109-2.506-14.382-23.201-13.634-29.32a.507.507 0 0 1 .059-.181.508.508 0 0 1 .124-.145.501.501 0 0 1 .361-.101.5.5 0 0 1 .326.184c.04.05.069.108.086.17a.47.47 0 0 1 .015.19c-.757 6.517 4.856 26.037 12.964 28.251a.477.477 0 0 1 .34.593.485.485 0 0 1-.514.359Z"/><path fill="#331338" d="M275.085 235.897a.504.504 0 0 1-.476-.515c.04-.306.129-.605.263-.884a42.205 42.205 0 0 0 2.699-16.373.49.49 0 0 1 .291-.455.493.493 0 0 1 .534.092.473.473 0 0 1 .147.343 43.33 43.33 0 0 1-2.72 16.743 4.815 4.815 0 0 0-.213.593.474.474 0 0 1-.16.345.47.47 0 0 1-.365.111ZM254.197 235.071a11.521 11.521 0 0 1-6.283-2.165c-3.341-2.234-8.313-.971-8.361-.971a.485.485 0 0 1-.511-.17.496.496 0 0 1-.093-.36.497.497 0 0 1 .19-.321.492.492 0 0 1 .171-.082c.213-.058 5.448-1.398 9.148 1.078a9.954 9.954 0 0 0 6.069 1.943.484.484 0 0 1 .539.432.486.486 0 0 1-.432.539s-.175.077-.437.077Z"/><path fill="#331338" d="M296.362 243.899a.486.486 0 0 1-.272-.077 19.096 19.096 0 0 0-2.554-1.146 87.871 87.871 0 0 0-3.496-1.311c-3.292-1.175-7.04-2.331-10.827-3.351h-.098c-.475-.136-.971-.262-1.466-.388l-.379-.097c-10.76-2.768-20.937-5.381-26.967-3.458a.482.482 0 1 1-.292-.922c6.303-2.011 16.597.631 27.502 3.437l.379.098 1.524.398c3.817.971 7.595 2.195 10.925 3.37 1.282.456 2.467.903 3.535 1.33.94.346 1.852.761 2.729 1.243a.476.476 0 0 1-.272.884l.029-.01ZM236.999 256.767a.444.444 0 0 1-.185 0 13.431 13.431 0 0 1-7.769-9.362.486.486 0 0 1 .971 0c0 .156 1.438 6.138 7.186 8.488a.5.5 0 0 1 .16.103.497.497 0 0 1 .147.342.481.481 0 0 1-.035.187.496.496 0 0 1-.475.242ZM268.977 270.606a.514.514 0 0 1-.175 0l-1.408-.563c-6.312-2.525-14.178-5.662-19.422-10.459-3.943-3.603-6.623-3.885-6.652-3.885a.473.473 0 0 1-.333-.166.487.487 0 0 1 .401-.805c.126 0 3.01.252 7.244 4.108 5.128 4.681 12.897 7.769 19.141 10.275l1.408.563a.494.494 0 0 1 .272.631.493.493 0 0 1-.476.301ZM318.202 249.989h-.126a.484.484 0 0 1-.355-.412.493.493 0 0 1 .015-.191 23.828 23.828 0 0 0-.971-16.305.489.489 0 0 1 .209-.656.488.488 0 0 1 .656.209c.155.291 3.758 7.352 1.039 17.024a.495.495 0 0 1-.467.331Z"/><path fill="#C25638" d="M217.246 226.127a.495.495 0 0 1-.379-.185s-1.573-1.748-7.283-1.427a.48.48 0 0 1-.352-.121.49.49 0 0 1-.162-.336.492.492 0 0 1 .456-.514c6.361-.369 8.041 1.709 8.109 1.796a.485.485 0 0 1-.088.68.491.491 0 0 1-.301.107ZM218.975 222.98a.455.455 0 0 1-.311-.116s-1.816-1.428-6.798-2.108a26.262 26.262 0 0 0-10.507 1.137.495.495 0 0 1-.622-.301.485.485 0 0 1 .302-.612 26.84 26.84 0 0 1 10.954-1.185c5.36.719 7.254 2.263 7.341 2.321a.496.496 0 0 1-.128.83.481.481 0 0 1-.231.034ZM211.536 218.97a.787.787 0 0 1-.194 0c-5.195-2.312-10.857-.282-10.915-.263a.48.48 0 0 1-.655-.469.5.5 0 0 1 .153-.343.497.497 0 0 1 .162-.101c.252-.087 6.098-2.185 11.653.282a.488.488 0 0 1 .243.641.484.484 0 0 1-.186.192.486.486 0 0 1-.261.061Z"/><path fill="#331338" d="M305.53 154.843c.145.894-.185 1.69-.738 1.778-.554.087-1.127-.554-1.282-1.448-.156-.893.184-1.689.738-1.777.553-.087 1.126.554 1.282 1.447ZM297.489 156.494c.145.894-.185 1.69-.738 1.778-.554.087-1.127-.554-1.282-1.448-.155-.893.184-1.689.738-1.786.553-.098 1.126.592 1.282 1.456Z"/><path fill="#D9415D" d="M303.412 164.642a.489.489 0 0 1-.563-.407.499.499 0 0 1 .087-.367.497.497 0 0 1 .321-.197 3.973 3.973 0 0 0 2.554-4.457.493.493 0 0 1 .418-.554.492.492 0 0 1 .553.418 4.988 4.988 0 0 1-3.204 5.516.403.403 0 0 1-.166.048Z"/><path fill="#331338" d="M118.776 315.028a.483.483 0 0 1-.379-.185.51.51 0 0 1 .078-.689c.107-.068 10.002-7.77 13.799-14.179 1.943-3.225 2.71-7.838 3.487-12.295.777-4.458 1.495-8.644 3.282-11.072a.495.495 0 0 1 .809.043.486.486 0 0 1-.022.54c-1.661 2.243-2.37 6.322-3.118 10.683-.786 4.545-1.602 9.245-3.612 12.625-3.884 6.555-13.596 14.14-14.023 14.461a.488.488 0 0 1-.301.068ZM248.856 232.993a.476.476 0 0 1-.267-.078.479.479 0 0 1-.215-.488.487.487 0 0 1 .122-.25s1.855-2.146 2.351-8.225c.553-6.925-1.719-8.867-1.748-8.887a.483.483 0 0 1-.068-.679.476.476 0 0 1 .67-.088c.116.088 2.719 2.205 2.107 9.712-.515 6.458-2.515 8.74-2.593 8.808a.52.52 0 0 1-.359.175ZM229.094 248.901a.637.637 0 0 1-.185 0 .497.497 0 0 1-.272-.631c3.195-7.945 7.012-17.326 7.012-17.326l.903.369s-3.826 9.372-7.012 17.316a.467.467 0 0 1-.446.272Z"/><path fill="#702831" d="M299.198 150.968a3.262 3.262 0 0 1 1.437-1.311 4.868 4.868 0 0 1 1.777-.505 6.252 6.252 0 0 1 1.806.088 4.839 4.839 0 0 1 1.671.67.428.428 0 0 1 .126.602.391.391 0 0 1-.233.175 12.48 12.48 0 0 1-1.612.34c-.505.087-.971.145-1.486.223-.515.078-.971.136-1.437.204-.466.068-.971.116-1.525.126h-.136a.419.419 0 0 1-.417-.417.48.48 0 0 1 .029-.195ZM296.343 152.678a2.971 2.971 0 0 1-.505.417l-.476.36c-.172.13-.329.28-.466.446a7.4 7.4 0 0 0-.573.768 1.72 1.72 0 0 1-.243-2.166c.2-.35.483-.643.826-.855a2.171 2.171 0 0 1 1.107-.32.687.687 0 0 1 .679.67.703.703 0 0 1-.145.427l-.204.253Z"/><path fill="#F2AE72" d="m344.869 162.185-8.74 56.163a39.498 39.498 0 0 1-38.941 32.651h-28.444a14.766 14.766 0 0 0-14.741 13.596l-2.516 32.291-90.837-.077-2.836-37.109a9.787 9.787 0 0 0-9.711-9.051h-.592c-7.439 0-13.197 6.798-12.178 14.364l12.625 93.504h17.412l81.31.097 87.157.097 30.24-170.867a22.016 22.016 0 0 0-10.741-22.88 22.027 22.027 0 0 0-8.467-2.779Z"/><path fill="#FCD8AE" d="M317.746 142.296c7.847 2.233 15.79 4.924 22.481 9.711a37.065 37.065 0 0 1 5.536 4.856 34.173 34.173 0 0 1 8.574 18.783l.107.971.224 2 .145 1.244a10.086 10.086 0 0 1-3.036 8.44 10.081 10.081 0 0 1-12.824.936 10.09 10.09 0 0 1-4.228-7.911 10.082 10.082 0 0 1 .919-4.515 11.305 11.305 0 0 0 .845-7.42 12.295 12.295 0 0 0-1.574-3.564c-.82-1.213-1.8-2.31-2.913-3.263-5.448-4.856-2.661-6.215-9.264-8.245 1.728-1.195-3.448-2.69-1.506-3.564-1.854.971-1.514-2.312-3.573-2.205.835-1.884-1.573 2.846.087 1.807-1.602-.972-10.866-1.496-9.177-4.856 1.564-3.127 4.856-4.128 8.09-3.438l1.087.233Z"/><path fill="#86303A" d="M290.196 140.956c4.001 4.457 11.556 11.11 26.433 13.042 0 0 5.39-1.039 4.642 3.128-.747 4.166-12.42 20.617-9.546 35.505 2.875 14.888 21.472 3.254 18.714 17.918a249.66 249.66 0 0 1-6.905 25.94c25.152 7.711 37.601-31.281 30.91-48.471-2.661-6.846-5.768-13.373-11.002-18.403-6.351-6.119-8.808-12.625-11.129-20.88-1.855-6.575-4.953-13.509-11.09-17.083-5.905-3.438-15.12-2.195-21.316-.787-6.798 1.564-14.567 4.701-9.711 10.091Z"/><path fill="#FCD8AE" d="M254.886 154.222c-.16.291-.342.57-.543.835a22.148 22.148 0 0 0-1.379 1.942 44.685 44.685 0 0 0-1.321 2.234 45.288 45.288 0 0 0-2.272 4.759 50.286 50.286 0 0 0-1.069 2.913 50.675 50.675 0 0 0-.67 2.127 47.471 47.471 0 0 0-1.117 5.196v.145a3.895 3.895 0 1 1-7.768-.611 53.63 53.63 0 0 1 .33-6.361c.068-.612.155-1.234.252-1.846a54.17 54.17 0 0 1 .845-4.438 55.543 55.543 0 0 1 1.806-6.138c.369-.971.748-2.02 1.185-3.03a34.124 34.124 0 0 1 1.486-3.098l.097-.175a5.838 5.838 0 0 1 5.839-3.558 5.822 5.822 0 0 1 4.156 2.259 5.807 5.807 0 0 1 1.043 2.182 5.81 5.81 0 0 1 .068 2.417 5.84 5.84 0 0 1-.919 2.236l-.049.01Z"/><path fill="#331338" d="M331.856 148.133a.5.5 0 0 1-.466-.34c-4.438-14.772-12.343-16.51-12.421-16.559a.495.495 0 0 1-.307-.75.475.475 0 0 1 .502-.202c.34.068 8.536 1.846 13.158 17.229a.484.484 0 0 1-.33.602l-.136.02Z"/><path fill="#FF9A75" d="M322.435 155.92c1.077-2.728.511-5.509-1.265-6.21-1.776-.702-4.089.942-5.166 3.671-1.078 2.728-.512 5.509 1.264 6.21 1.776.702 4.089-.942 5.167-3.671Z"/><path fill="#331338" d="M246.758 359.167a.492.492 0 0 1-.446-.524l7.574-95.107A14.132 14.132 0 0 1 267.86 250.6a.488.488 0 0 1 .344.829.488.488 0 0 1-.344.143 13.149 13.149 0 0 0-13.032 12.042l-7.574 95.107a.486.486 0 0 1-.496.446Z"/><path fill="#FF9A75" d="M247.467 222.971a33.06 33.06 0 0 1-.621 4.069h-.156a15.858 15.858 0 0 1-4.069-.894 6.063 6.063 0 0 1-2.408-1.466c-1.942-2.273-1.768-6.429-5.914-10.207-3.312-3.03-6.798-8.741-4.506-8.109 0 0 4.166 2.476 9.895 6.031 1.681 1.049 3.186 2.136 4.574 3.156 1.156.864 2.244 1.68 3.292 2.379.099 1.68.069 3.365-.087 5.041Z"/><path fill="#C25638" d="M300.101 162.438a.914.914 0 0 1-.884-.554c-.252-.641-.777-5.895-.971-7.487a.5.5 0 0 1 .437-.525.505.505 0 0 1 .534.437c.311 3.186.719 6.798.865 7.216a3.446 3.446 0 0 0 1.883-1.525.509.509 0 0 1 .632-.34.506.506 0 0 1 .34.632 3.894 3.894 0 0 1-2.787 2.146h-.049Z"/><path fill="#331338" d="M338.605 202.353h-.048a.488.488 0 0 1-.427-.534c.252-2.419-.117-4.205-1.146-5.478-1.845-2.282-5.594-2.67-9.575-3.088-3.487-.369-7.09-.738-9.712-2.447-10.682-6.867 1.719-30.553 2.253-31.563a.48.48 0 0 1 .285-.234.473.473 0 0 1 .366.039.483.483 0 0 1 .259.471.477.477 0 0 1-.055.18c-.126.243-12.527 23.901-2.583 30.291 2.447 1.583 5.933 1.942 9.313 2.292 4.176.447 8.128.854 10.216 3.447 1.204 1.486 1.651 3.506 1.359 6.197a.483.483 0 0 1-.505.427ZM327.991 229.73a16.118 16.118 0 0 1-1.864-.097.494.494 0 0 1-.418-.554.494.494 0 0 1 .554-.408c.592.088 14.654 1.943 20.665-12.761a.482.482 0 0 1 .631-.262.506.506 0 0 1 .159.103.474.474 0 0 1 .103.528 20.733 20.733 0 0 1-19.83 13.451ZM334.148 236.742c-5.584 0-9.235-4.419-9.284-4.477a.487.487 0 0 1 .758-.612c.233.291 5.826 6.973 13.731 2.719a.492.492 0 0 1 .541.055.49.49 0 0 1 .152.521.498.498 0 0 1-.236.289 11.933 11.933 0 0 1-5.662 1.505ZM323.213 152.61h-.087a.489.489 0 0 1-.398-.554c.359-2.117.097-3.535-.826-4.487-1.796-1.874-6.37-2.224-14.809-1.136-15.431 1.942-18.81-8.808-18.849-8.925a.484.484 0 0 1 .698-.558.493.493 0 0 1 .234.286c.126.408 3.214 10.1 17.791 8.226 8.895-1.136 13.595-.709 15.634 1.427 1.146 1.195 1.496 2.914 1.088 5.322a.474.474 0 0 1-.476.399ZM163.408 359.206a.48.48 0 0 1-.33-.139.481.481 0 0 1-.146-.327l-5.292-97.952a10.065 10.065 0 0 0-1.298-4.263 10.067 10.067 0 0 0-3.014-3.283 11.965 11.965 0 0 0-10.391-1.204.494.494 0 0 1-.612-.321.485.485 0 0 1 .331-.602c4.146-1.253 8.128-.786 11.216 1.321a11.003 11.003 0 0 1 4.739 8.294l5.283 97.961a.487.487 0 0 1-.457.515h-.029ZM250.089 216.037a.49.49 0 0 1-.473-.366.48.48 0 0 1 .24-.547 4.314 4.314 0 0 0 1.641-1.661 4.475 4.475 0 0 1 3.02-2.069 6.801 6.801 0 0 1 5.176.884c1.748 1.204 4.7 2.108 5.759 1.758a.495.495 0 0 1 .638.498.481.481 0 0 1-.327.425c-1.612.543-4.992-.758-6.623-1.884a5.942 5.942 0 0 0-4.409-.739 3.595 3.595 0 0 0-2.399 1.603 5.158 5.158 0 0 1-2.02 2.039.448.448 0 0 1-.223.059Z"/><path fill="#331338" d="M262.471 214.483h-.398a.486.486 0 0 1-.328-.18.49.49 0 0 1 .075-.687.486.486 0 0 1 .359-.104 4.503 4.503 0 0 0 2.787-.972c1.943-1.107 4.856-2.787 11.382-2.292a.485.485 0 0 1 .451.52.484.484 0 0 1-.519.452c-6.196-.476-8.876 1.048-10.828 2.165a6.053 6.053 0 0 1-2.981 1.098Z"/><path fill="#FCD8AE" d="M278.047 158.136c-1.408 2.33-5.758 2.593-7.846 6.973-.397.855-.75 1.73-1.059 2.622a44.032 44.032 0 0 0-.767 2.331 39.237 39.237 0 0 0-1.204 5.156l-.049.233a3.882 3.882 0 0 1-6.475 1.745 3.887 3.887 0 0 1-1.138-2.385 48.5 48.5 0 0 1 .252-6.4c.046-.486.104-.972.175-1.457.214-1.632.505-3.254.874-4.856a56.688 56.688 0 0 1 1.768-6.157c.349-.971.718-2.02 1.126-3.021.204-.495.418-.971.631-1.485l.321-.729.136-.32c0-.068.068-.136 0 0 1.359-2.914 4.583-3.555 7.769-3.011 7.059 1.253 6.953 8.342 5.486 10.761Z"/><path fill="#AD5F1F" d="M260.363 165.759h-.058a.484.484 0 0 1-.427-.534c.913-9.061 5.826-13.713 9.089-16.791 1.651-1.554 2.914-2.788 2.807-3.798a.496.496 0 0 1 .417-.553.504.504 0 0 1 .554.417c.194 1.515-1.195 2.826-3.108 4.633-3.156 2.981-7.914 7.488-8.798 16.189a.477.477 0 0 1-.476.437Z"/><path fill="#D48648" d="M260.703 148.725c0 1.69-2.573 4.069-4.855 4.089-2.282.019-5.332-1.787-5.351-3.467-.019-1.681 1.942-3.341 4.856-3.565 2.913-.223 5.331 1.243 5.35 2.943Z"/><path fill="#AD5F1F" d="M253.595 156.543c-3.37-.272-9.381-1.651-11.76-7.837-1.807-4.72.971-8.974 1.942-10.586.11-.156.211-.318.301-.486a.46.46 0 0 1 .206-.298.464.464 0 0 1 .357-.061.507.507 0 0 1 .379.592 2.808 2.808 0 0 1-.427.787c-.971 1.486-3.516 5.448-1.875 9.712 2.176 5.681 7.769 6.953 10.925 7.206a.504.504 0 0 1 .447.524.486.486 0 0 1-.495.447Z"/><path fill="#D48648" d="M269.142 167.731a44.303 44.303 0 0 0-.767 2.33 39.29 39.29 0 0 0-1.204 5.157l-.049.233a3.882 3.882 0 0 1-7.613-.64 48.5 48.5 0 0 1 .252-6.4c.046-.486.104-.972.175-1.457a21.509 21.509 0 0 1 2.913-.194 20.362 20.362 0 0 1 6.293.971Z"/><path fill="#FCD8AE" d="M347.744 191.175c-6.012 2.534-12.955-.233-17.257-4.681a27.101 27.101 0 0 1-1.864-2.185 28.592 28.592 0 0 1-2.02-3.069 9.76 9.76 0 0 1-.612-1.331 12.028 12.028 0 0 1-.457-1.486v-.048a.394.394 0 0 0 0-.097c0-.156-.068-.321-.097-.496v.068a14.473 14.473 0 0 1 .204-8.196 17.428 17.428 0 0 1 1.292-3.244l.505 1.631a13.703 13.703 0 0 1 1.709-3.175 14.274 14.274 0 0 1 2.981 2.34c.282-.573.593-.971.651-.971 1.165.971 3.156 1.428 5.759 5.002a18.387 18.387 0 0 1 1.815 2.573c.282.476.69 1.661 1.243 2.516.437.67.972 1.146 1.583.903 1.35-.534 0-3.953-.301-4.856-.835-2.593-4.603-8.43-5.681-10.945l.971-3.195c-.971-2.185 2.419 1.641 4.604.709 1.767-.758 4.204-.777 5.399.602a31.07 31.07 0 0 1 5.661 10.236 28.624 28.624 0 0 1 1.671 6.303c.641 6.07-1.913 12.615-7.759 15.092Z"/><path fill="#FCD8AE" d="M325.418 178.025v-.165c.003.055.003.11 0 .165Z"/><path fill="#D48648" d="M337.43 169.615a21.532 21.532 0 0 0-4.758-3.496 2.988 2.988 0 0 0-.651 1.039 20.245 20.245 0 0 0-2.864-2.438 9.41 9.41 0 0 0-1.826 2.991l-.466-1.301s-1.117.913-2.001 3.778c-.822 3.079-.6 6.344.631 9.284a18.498 18.498 0 0 0 2.428 4.332c1.03 1.369 3.71 2.34 5.302 1.495 1.836-.971 3.098-4.089 3.574-6.555 2.476.437 4.331-.476 4.72-2.389a21.935 21.935 0 0 0-4.089-6.74Z"/><path fill="#AD5F1F" d="M252.75 148.608a.486.486 0 0 1-.39-.771.458.458 0 0 1 .142-.128.46.46 0 0 1 .18-.062 2.912 2.912 0 0 0 1.942-.971 1.6 1.6 0 0 0 .301-.816v-.418a.486.486 0 0 1 .971 0c.012.152.012.305 0 .457.016.47.203.919.525 1.262a1.715 1.715 0 0 0 1.476.282.495.495 0 0 1 .553.408.485.485 0 0 1-.398.553 2.578 2.578 0 0 1-1.21.008 2.58 2.58 0 0 1-1.082-.542 2.029 2.029 0 0 1-.417-.505 3.828 3.828 0 0 1-2.544 1.302l-.049-.059Z"/><path fill="#D48648" d="M248.302 166.915a50.675 50.675 0 0 0-.67 2.127 47.421 47.421 0 0 0-1.117 5.196v.145a3.895 3.895 0 1 1-7.768-.612 53.642 53.642 0 0 1 .33-6.361c.068-.612.155-1.233.252-1.845.505 0 1.02-.049 1.544-.049a19.721 19.721 0 0 1 7.429 1.399Z"/><path fill="#331338" d="M256.712 145.413c0 .496-.544.971-1.243.971-.699 0-1.301-.349-1.321-.854-.019-.505.535-.971 1.243-.971.709 0 1.292.359 1.321.854Z"/><path fill="#AD5F1F" d="M241.009 177.86a.467.467 0 0 1-.446-.301 8.82 8.82 0 0 1-.632-3.535c0-.129.051-.252.143-.343a.481.481 0 0 1 .343-.143.487.487 0 0 1 .476.486 7.761 7.761 0 0 0 .553 3.156.494.494 0 0 1-.437.68ZM245.816 150.803a.502.502 0 0 1-.446-.281.482.482 0 0 1 .242-.641l3.652-1.7a.489.489 0 0 1 .688.418.485.485 0 0 1-.28.466l-3.652 1.69a.53.53 0 0 1-.204.048ZM249.409 147.326l-4.535-.359a.486.486 0 0 1-.447-.524.506.506 0 0 1 .525-.447l4.535.359a.484.484 0 1 1 0 .971h-.078ZM262.14 146.433a.49.49 0 0 1-.307-.109.489.489 0 0 1-.168-.279.493.493 0 0 1 .388-.573l4.351-.865a.483.483 0 0 1 .563.379.486.486 0 0 1-.067.367.482.482 0 0 1-.312.206l-4.35.864-.098.01ZM265.53 149.191a.454.454 0 0 1-.156 0l-3.34-1.185a.495.495 0 0 1-.301-.621.495.495 0 0 1 .621-.301l3.341 1.155a.5.5 0 0 1 .301.622.493.493 0 0 1-.466.33ZM243.845 177.86a.485.485 0 0 1-.447-.301 9.106 9.106 0 0 1-.612-3.885.462.462 0 0 1 .307-.442.465.465 0 0 1 .189-.024.478.478 0 0 1 .34.149.48.48 0 0 1 .135.346 8.13 8.13 0 0 0 .535 3.448.497.497 0 0 1 .007.373.5.5 0 0 1-.26.268.434.434 0 0 1-.194.068ZM261.762 178.695a.479.479 0 0 1-.457-.33 8.753 8.753 0 0 1-.369-3.584.487.487 0 0 1 .847-.273.475.475 0 0 1 .115.351 7.867 7.867 0 0 0 .33 3.186.499.499 0 0 1-.021.373.478.478 0 0 1-.28.248.49.49 0 0 1-.165.029ZM264.597 178.889a.49.49 0 0 1-.456-.32 9.122 9.122 0 0 1-.34-3.885.488.488 0 0 1 .971.097 8.12 8.12 0 0 0 .301 3.477.495.495 0 0 1-.301.622l-.175.009Z"/><path fill="#331338" d="M332.157 172.198a.492.492 0 0 1-.456-.311c-1.496-4.02.553-6.031.641-6.118a.485.485 0 0 1 .67.699c-.078.078-1.661 1.7-.398 5.079a.488.488 0 0 1-.457.651ZM328.069 170.664a.485.485 0 0 1-.338-.16.469.469 0 0 1-.119-.355 7.163 7.163 0 0 0-1.126-3.467.496.496 0 0 1-.069-.367.492.492 0 0 1 .21-.308.484.484 0 0 1 .541.005.482.482 0 0 1 .134.136 8.022 8.022 0 0 1 1.282 4.059.492.492 0 0 1-.163.335.485.485 0 0 1-.352.122ZM299.518 225.302c-.204.641-.543 2.787-.747 3.428-2.797 8.74-8.566 12.13-8.566 12.13-2.816-.972-2.602-1.292-6.982-2.467.34.078-3.418-11.955-4.457-17.675 0 0 4.69 12.246 10.624 13.509 3.855.815 8.215-2.865 10.128-8.925Z"/><path fill="#AD5F1F" d="M260.354 134.303a.486.486 0 0 1-.476-.417c-.175-1.389.971-4.041 1.078-4.342a.496.496 0 0 1 .641-.252.48.48 0 0 1 .259.268.477.477 0 0 1-.007.373 11.037 11.037 0 0 0-.971 3.826.487.487 0 0 1-.418.544h-.106ZM245.35 139.013a.484.484 0 0 1-.466-.359 10.109 10.109 0 0 1 .058-5.089.506.506 0 0 1 .13-.139.501.501 0 0 1 .363-.084.49.49 0 0 1 .386.344.474.474 0 0 1-.034.345 10.516 10.516 0 0 0 0 4.37.466.466 0 0 1-.045.369.471.471 0 0 1-.295.224l-.097.019Z"/><path fill="#C25638" d="M92.954 347.562a.524.524 0 0 1-.233-.058c-1.65-.894-2.389-1.943-2.195-3.157.496-2.981 6.71-5.215 7.128-5.283a.489.489 0 0 1 .496.22.485.485 0 0 1 .068.178.488.488 0 0 1-.398.554c-.748.126-5.982 2.36-6.332 4.496-.126.748.447 1.467 1.7 2.137a.495.495 0 0 1 .194.66.476.476 0 0 1-.428.253Z"/><path fill="#F29E57" d="M386.588 254.33c0 28.669-3.147 51.918-7.031 51.918-3.885 0-2.914-23.541-7.041-51.918-5.224-35.982-4.273-53.531 1.836-55.357 8.371-2.505 12.236 26.688 12.236 55.357Z"/><path fill="#F2AE72" d="M393.677 226.836c-1.282 28.64-7.925 51.608-11.77 51.074-3.846-.534.311-23.716.068-52.385-.311-36.361 7.176-67.147 13.479-68.127 8.633-1.341-.554 42.177-1.777 69.438Z"/><path fill="#F6DF8A" d="M381.752 285.106c-.923-54.113 14.381-74.547 14.566-74.78l.767.602c-.155.194-15.246 20.395-14.333 74.129l-1 .049Z"/><path fill="#D4C962" d="M419.178 266.236c-12.916 14.762-33.804 32.699-37.038 29.281-3.234-3.419 3.884-17.481 14.149-34.778 10.808-18.228 20.014-25.036 25.54-24.861 8.954.31 10.265 15.626-2.651 30.358Z"/><path fill="#AD5F1F" d="M380.509 277.647a.502.502 0 0 1-.476-.378c-.321-1.185.495-55.26 3.078-82.462 2.661-28.009 8.954-36.992 12.246-37.876a.493.493 0 0 1 .602.34.487.487 0 0 1-.35.593c-2.845.767-8.915 9.498-11.527 37.03-2.544 26.766-3.34 80.5-3.107 82.151a.472.472 0 0 1-.171.504.46.46 0 0 1-.169.079l-.126.019Z"/><path fill="#F6DF8A" d="M382.004 310.386c-1.699-51.968-22.335-84.444-22.539-84.774l.815-.524c.204.32 20.986 33.02 22.695 85.268l-.971.03Z"/><path fill="#D4C962" d="M389.734 243.171c-8.429 22.696-12.265 57.95-6.526 58.824 5.545.835 10.352-15.879 23.889-39.08 13.227-22.59 27.793-51.705 23.909-57.299-7.419-10.615-29.551 6.031-41.272 37.555Z"/><path fill="#968E34" d="M421.577 265.459a.475.475 0 0 1-.379-.777c2.962-3.884 8.944-16.442 7.06-23.395a5.715 5.715 0 0 0-3.448-4.05c-8.885-3.593-17.266 8.109-17.353 8.226a.492.492 0 0 1-.506.195.482.482 0 0 1-.366-.39.505.505 0 0 1 .075-.359c.36-.514 8.925-12.45 18.519-8.575a6.64 6.64 0 0 1 4.011 4.7c2.069 7.624-4.409 20.589-7.225 24.28a.49.49 0 0 1-.388.145Z"/><path fill="#6B8262" d="M375.459 257.496c6.059 17.306 11.022 42.566 6.749 43.625-4.118 1.019-12.411-11.208-21.763-27.533-9.847-17.19-11.148-27.814-8.458-32.223 4.36-7.177 17.422-1.205 23.472 16.131Z"/><path fill="#D4C962" d="M364.262 270.878c9.837 6.876 16.664 24.037 14.683 28.446-1.981 4.409-9.711-5.575-20.617-10.498-10.905-4.924-17.042-12.13-16.217-16.899.99-5.691 6.846-11.751 22.151-1.049Z"/><path fill="#968E34" d="M374.944 300.227a.493.493 0 0 1-.486-.417c-.922-6.721-5.02-16.025-19.286-22.221-8.138-3.525-10.682-6.468-11.391-8.313a2.618 2.618 0 0 1-.126-1.942.482.482 0 0 1 .641-.233.485.485 0 0 1 .252.631c0 .078-1.175 3.69 11.013 8.973 14.673 6.371 18.897 16.015 19.859 22.988a.485.485 0 0 1-.408.544l-.068-.01Z"/><path fill="#F29E57" d="M390.055 274.86c-7.274 12.625-10.935 24.124-8.167 25.726 2.767 1.603 8.574-7.031 15.848-19.646 6.448-11.188 18.946-18.831 18.83-25.027-.126-8.226-19.228 6.332-26.511 18.947Z"/><path fill="#F6DF8A" d="M382.538 300.771v-1.525c0-.476.097-.971.165-1.389.971-6.536 5.099-12.625 9.711-17.18 7.274-7.264 15.965-12.926 24.88-17.966 4.399-2.486 8.886-4.856 13.363-7.167 3.729-1.943 7.613-4.856 11.808-5.429 4.195-.573 4.059 3.972 2.554 6.41-13.673 22.094-44.302 21.919-56.868 44.246-.359.651-2.107 1.525-2.719 1.942-1.524 1.088-2.913-.417-2.894-1.942Z"/><path fill="#968E34" d="M382.538 295.808a.5.5 0 0 1-.378-.177.474.474 0 0 1-.049-.532l.136-.291c3.175-7.119 14.032-25.114 46.089-38.594a.483.483 0 0 1 .641.262.475.475 0 0 1-.263.631c-31.735 13.344-42.447 31.078-45.583 38.09l-.165.359a.478.478 0 0 1-.428.252Z"/><path fill="#AFBCF6" d="M404.165 365.82c-.292-5.332-1.884-10.926-2.817-16.17-1.579-8.857-3.156-17.714-4.729-26.571l-4.078-22.93c-.049-.271-.729-4.855-.855-4.855h-22.928s-11.964 67.243-11.974 67.272c-.738 4.138-.699 7.896 1.234 11.722a21.03 21.03 0 0 0 8.38 8.556h27.638c1.175 0 3.428-2.36 4.254-3.127a19.879 19.879 0 0 0 3.447-4.205 17.21 17.21 0 0 0 2.428-9.692Z"/><path fill="#5361A3" d="M380.266 369.287c-8.044.091-16.08-.526-24.016-1.845a.486.486 0 0 1-.178-.073.48.48 0 0 1-.213-.312.501.501 0 0 1 .07-.372.51.51 0 0 1 .313-.213.501.501 0 0 1 .193-.002 156.335 156.335 0 0 0 47.652 0 .506.506 0 0 1 .19-.001.507.507 0 0 1 .31.205.477.477 0 0 1-.001.543.486.486 0 0 1-.314.205 136.822 136.822 0 0 1-24.006 1.865ZM380.266 363.741a138.184 138.184 0 0 1-23.375-1.728.513.513 0 0 1-.317-.204.496.496 0 0 1 .123-.687.492.492 0 0 1 .369-.08 137.259 137.259 0 0 0 23.2 1.709c7.804.078 15.6-.504 23.306-1.739a.5.5 0 0 1 .564.399.488.488 0 0 1-.389.563 138.2 138.2 0 0 1-23.481 1.767Z"/><path fill="#6B8262" d="M234.716 100.798H179.8v4.069h54.916v-4.069Z"/><path fill="#F6DF8A" d="M402.549 210.086c2.309-4.355 2.191-8.94-.263-10.242-2.454-1.302-6.316 1.173-8.625 5.528-2.31 4.354-2.192 8.94.262 10.242 2.454 1.301 6.316-1.173 8.626-5.528ZM356.736 226.914c1.524 3.059 4.166 4.855 5.894 3.991 1.729-.864 1.943-4.04.369-7.109-1.573-3.069-4.166-4.856-5.894-3.991-1.729.864-1.845 4.04-.369 7.109Z"/><path fill="#DBD372" d="M208.904 76.208c-2.758 4.768-7.914 6.953-11.527 4.856-3.612-2.098-4.292-7.643-1.534-12.412 2.758-4.768 7.914-6.963 11.517-4.856 3.603 2.108 4.293 7.634 1.544 12.412Z"/><path fill="#DBD372" d="M218.614 84.152c2.757-4.775 1.441-10.696-2.939-13.225-4.38-2.53-10.165-.708-12.922 4.067-2.757 4.775-1.441 10.696 2.939 13.225s10.166.708 12.922-4.067Z"/><path fill="#DBD372" d="M200.349 74.528c3.389 3.39 3.943 8.323 1.243 11.022-2.7 2.7-7.633 2.137-11.013-1.243-3.379-3.38-3.942-8.323-1.243-11.022 2.7-2.7 7.633-2.137 11.013 1.243ZM214.682 70.867a3.007 3.007 0 0 1-2.68 3.263c-1.476 0-2.67-1.457-2.67-3.263 0-1.807 1.194-3.264 2.67-3.264a3.008 3.008 0 0 1 2.68 3.264Z"/><path fill="#F6DF8A" d="M210.07 100.798h-17.529l-2.418-17.015h22.365l-2.418 17.015Z"/><path fill="#DBD372" d="M202.796 83.783s4.234-.204 5.341 2.68c.787 2.06 2.282 3.4 4.759 2.438 3.476-1.36 1.796-8.45 1.796-8.45l-11.896 3.332Z"/><path fill="#968E34" d="M209.332 70.517h-.068a.488.488 0 0 1-.418-.554 3.294 3.294 0 0 1 3.661-2.816.485.485 0 0 1 .447.524.488.488 0 0 1-.335.425.486.486 0 0 1-.189.022 2.33 2.33 0 0 0-2.622 1.942.49.49 0 0 1-.476.457ZM201.116 75.887a.483.483 0 0 1-.437-.272c-.107-.213-2.719-5.186-9.779-2.913a.507.507 0 1 1-.301-.971c7.866-2.584 10.925 3.302 10.954 3.37a.497.497 0 0 1-.223.65.527.527 0 0 1-.214.136Z"/></g><defs><clipPath id="a"><path fill="#fff" d="M0 63h446v321H0z"/></clipPath></defs></svg>