<svg xmlns="http://www.w3.org/2000/svg" width="642" height="611" fill="none"><path fill="#FFF6D9" fill-rule="evenodd" d="M317.148 609.96c-64.951 9.441-119.794-47.41-169.609-90.134-46.18-39.608-80.675-88.328-103.983-144.518-25.137-60.599-60.541-128.763-34.323-188.901 26.035-59.718 105.345-68.298 161.128-101.964C219.818 54.595 259.82-6.554 317.148.573c57.516 7.15 77.513 80.76 122.462 117.342 41.136 33.48 97.603 43.915 128.573 86.969 39.229 54.536 93.019 122.933 66.95 184.845-26.515 62.968-124.611 46.595-180.785 85.501-54.018 37.411-72.172 125.278-137.2 134.73Z" clip-rule="evenodd"/></svg>