<svg xmlns="http://www.w3.org/2000/svg" width="114" height="169" fill="none"><path fill="#D4C962" d="M68.849 105.845C44.795 121.976 8.164 139.593 4.86 133.48c-3.302-6.113 12.22-23.46 33.465-44.22 22.375-21.884 38.1-28.082 45.909-25.722 12.643 3.863 8.656 26.217-15.386 42.307Z"/><path fill="#D4C962" d="M35.7 61.687C15.006 90.853-3.94 139.692 3.906 143.131c7.584 3.31 20.826-18.704 48.992-46.64 27.49-27.181 59.384-63.163 55.986-72.629-6.517-17.98-44.426-2.68-73.186 37.825Z"/><path fill="#F6DF8A" d="m3.42 141.129.312-1.164.271-1.011c.182-.679.51-1.349.766-1.919 3.884-8.955 12.094-16.068 20.41-20.805 13.146-7.588 27.699-12.348 42.333-16.135 7.22-1.867 14.521-3.535 21.786-5.124 6.058-1.347 12.708-4.02 18.907-3.236 6.199.784 4.267 7.218 1.19 10.121-27.937 26.305-71.527 14.357-97.974 41.417-.761.791-3.587 1.371-4.619 1.733-2.589.97-3.992-1.708-3.382-3.877Z"/><path fill="#F6DF8A" d="M8.649 127.384C49.054 54.561 85.17 39.106 85.596 38.937l.559 1.393c-.357.14-36.01 15.448-76.136 87.759l-1.37-.705Z"/><path fill="#F6DF8A" d="M94.084 43.41c6.428-4.025 9.799-10.226 7.53-13.85-2.27-3.623-9.32-3.296-15.748.73-6.428 4.026-9.8 10.228-7.53 13.85 2.27 3.624 9.32 3.297 15.748-.73Z"/></svg>