<svg xmlns="http://www.w3.org/2000/svg" width="273" height="222" fill="none"><g clip-path="url(#a)"><path fill="#F2AE72" d="M111.125 167.059c-10.529 13.346-22.524 41.655-33.632 41.179-15.109-.652-13.126-17.723-15.058-19.191-1.933-1.467-13.607 10.89-23.09 2.452-10.295-9.153-.846-20.459-2.028-23.446-1.182-2.988-16.669-.26-19.408-14.546-1.859-9.628 5.869-14.769 13.176-17.356 2.25-1.027-2.602-1.092-7.995-6.649-7.13-7.336-3.784-20.964 12.634-22.555 16.418-1.59 38.57 3.21 44.793.526 6.224-2.685 108.127-72.238 142.869-95.544l45.173 78.242s-148.893 66.077-157.434 76.888Z"/><path fill="#FFF6D9" d="M70.48 152.801c-8.09-14.013 4.132-26.149 10.935-23.275 6.803 2.875 1.247 8.256 4.545 13.968s10.869 3.789 9.333 11.478c-1.537 7.689-17.434 10.607-24.812-2.171ZM80.764 185.304c5.492 2.087 7.087-9.521 3.28-10.891-3.808-1.37-8.283 8.99-3.28 10.891ZM58.026 173.792c2.937 2.207 10.038-6.22 7.13-8.876-2.51-2.291-11.79 5.379-7.13 8.876ZM44.738 149.368c1.094 5.102 13.424 2.74 12.58-1.849-.845-4.588-13.861-4.122-12.58 1.849ZM46.065 125.409c-.662 4.619 10.764 6.478 11.394 1.943.63-4.535-10.605-7.478-11.395-1.943Z"/><path fill="#D48648" d="M158.367 55.892c32.135-10.04 29.353 5.777 42.175-1.096 12.823-6.872 16.523 12.673 27.514 8.26 5.982-2.4 15.478-1.207 21.474-5.857L223.412 11.96c-14.194 9.484-39.562 26.703-65.045 43.93ZM185.88 96.516c-9.611 8.678-20.191 2.544-35.516 3.791-15.326 1.247-1.7 22.743-8.629 31.372-5.543 6.907 1.281 8.232.473 17.347 18.7-9.43 43.057-20.909 65.393-31.214-.662-13.557-13.588-28.622-21.721-21.296Z"/><path fill="#593524" d="M239.065 103.421c2.535-1.147 4.958-2.245 7.246-3.275 8.453-3.848 16.053-7.28 22.211-10.051-12.437-1.319-23.512 2.885-29.457 13.326Z"/></g><defs><clipPath id="a"><path fill="#fff" d="M56 221.995 0 125 216.506 0l56 96.995z"/></clipPath></defs></svg>